<?xml version="1.0" standalone="no"?><!DOCTYPE svg PUBLIC "-//W3C//DTD SVG 1.1//EN" "http://www.w3.org/Graphics/SVG/1.1/DTD/svg11.dtd"><svg t="1618319941251" class="icon" viewBox="0 0 1024 1024" version="1.1" xmlns="http://www.w3.org/2000/svg" p-id="2008" xmlns:xlink="http://www.w3.org/1999/xlink" width="40" height="40"><defs><style type="text/css"></style></defs><path d="M659.20256 856.832c27.14496 0 49.14944-22.00448 49.14944-49.15456 0-13.2544-5.25952-25.26464-13.78048-34.10944l0.01536-0.01536L433.69216 512.6528 691.2128 255.12704c10.4896-9.00992 17.14048-22.36544 17.14048-37.27488 0-27.14496-22.00448-49.14944-49.14944-49.14944-13.1904 0-25.16864 5.2096-34.00064 13.68064l-0.12928-0.13184L330.16192 477.16224l0.01536 0.02048c-9.27488 8.94464-15.04 21.47456-15.04 35.37024l0 0.1152 0 0.1152c0 13.90976 5.76512 26.41024 15.04 35.37536l-0.01536 0.01536 294.91072 294.90944 0.01408-0.01536C633.91744 851.58784 645.94688 856.832 659.20256 856.832L659.20256 856.832zM659.20256 856.832" p-id="2009"></path></svg>